<?xml version="1.0" standalone="no"?>
<!DOCTYPE svg PUBLIC "-//W3C//DTD SVG 20010904//EN"
 "http://www.w3.org/TR/2001/REC-SVG-20010904/DTD/svg10.dtd">
<svg version="1.0" xmlns="http://www.w3.org/2000/svg"
 width="512.000000pt" height="512.000000pt" viewBox="0 0 512.000000 512.000000"
 preserveAspectRatio="xMidYMid meet">
<metadata>
Created by potrace 1.11, written by Peter Selinger 2001-2013
</metadata>
<g transform="translate(0.000000,512.000000) scale(0.100000,-0.100000)"
fill="#000000" stroke="none">
<path d="M4572 5096 c-34 -13 -79 -35 -100 -50 -20 -14 -1019 -1008 -2218
-2208 -2093 -2094 -2183 -2186 -2215 -2253 -31 -65 -34 -77 -34 -171 0 -96 2
-104 37 -175 53 -106 119 -168 228 -215 44 -19 100 -19 2275 -21 2208 -2 2231
-1 2289 18 143 49 250 170 277 313 6 32 8 883 7 2261 l-3 2210 -25 58 c-37 87
-116 169 -205 213 -65 32 -84 37 -162 40 -73 2 -99 -1 -151 -20z m-278 -2836
c1 -1423 1 -1430 -19 -1431 -72 -3 -2842 -4 -2849 0 -4 2 637 649 1425 1437
788 788 1435 1431 1438 1429 2 -3 4 -648 5 -1435z"/>
</g>
</svg>
