<?xml version="1.0" encoding="UTF-8" standalone="no"?>
<svg width="30px" height="28px" viewBox="0 0 30 28" version="1.1" xmlns="http://www.w3.org/2000/svg" xmlns:xlink="http://www.w3.org/1999/xlink" xmlns:sketch="http://www.bohemiancoding.com/sketch/ns">
    <!-- Generator: Sketch 3.2.2 (9983) - http://www.bohemiancoding.com/sketch -->
    <title>logo</title>
    <desc>Created with Sketch.</desc>
    <defs></defs>
    <g id="Page-1" stroke="none" stroke-width="1" fill="none" fill-rule="evenodd" sketch:type="MSPage">
        <g id="Artboard-1" sketch:type="MSArtboardGroup" transform="translate(-135.000000, -120.000000)" fill="#FFFFFF">
            <g id="Imported-Layers" sketch:type="MSLayerGroup" transform="translate(135.000000, 120.000000)">
                <path d="M14.9594828,0.0245853659 C6.745,0.0245853659 0.085862069,6.61892683 0.085862069,14.7532683 C0.085862069,20.4553659 3.36034483,25.3970244 8.14672414,27.8446341 L10.1368966,24.0204146 C6.7487931,22.2878293 4.43086207,18.7895366 4.43086207,14.7532683 C4.43086207,8.99517073 9.14465517,4.32702439 14.9593103,4.32702439 C20.7743103,4.32702439 25.4881034,8.99517073 25.4881034,14.7532683 C25.4881034,18.7895366 23.1701724,22.2878293 19.7818966,24.0204146 L21.772069,27.8446341 C26.5586207,25.3970244 29.8332759,20.4553659 29.8332759,14.7532683 C29.8332759,6.61892683 23.1739655,0.0245853659 14.9594828,0.0245853659" id="Fill-1" sketch:type="MSShapeGroup"></path>
                <path d="M14.9593103,7.61412195 C10.977931,7.61412195 7.75017241,10.8102195 7.75017241,14.7532683 C7.75017241,18.6954634 10.977931,21.8922439 14.9593103,21.8922439 C18.9408621,21.8922439 22.1687931,18.6954634 22.1687931,14.7532683 C22.1687931,10.8102195 18.9408621,7.61412195 14.9593103,7.61412195 L14.9593103,7.61412195 Z M14.9593103,19.0709024 C12.5513793,19.0709024 10.5991379,17.1375366 10.5991379,14.7532683 C10.5991379,12.3683171 12.5513793,10.4352927 14.9593103,10.4352927 C17.3674138,10.4352927 19.3198276,12.3683171 19.3198276,14.7532683 C19.3198276,17.1375366 17.3674138,19.0709024 14.9593103,19.0709024 L14.9593103,19.0709024 Z" id="Fill-2" sketch:type="MSShapeGroup"></path>
            </g>
        </g>
    </g>
</svg>